<mxfile host="Electron" agent="Mozilla/5.0 (Windows NT 10.0; Win64; x64) AppleWebKit/537.36 (KHTML, like Gecko) draw.io/26.0.15 Chrome/132.0.6834.196 Electron/34.2.0 Safari/537.36" version="26.0.15">
  <diagram name="Page-1" id="FKZH206iivfg6qqyswJv">
    <mxGraphModel dx="1185" dy="683" grid="1" gridSize="10" guides="1" tooltips="1" connect="1" arrows="1" fold="1" page="1" pageScale="1" pageWidth="827" pageHeight="1169" math="0" shadow="0">
      <root>
        <mxCell id="0" />
        <mxCell id="1" parent="0" />
        <mxCell id="nkA88_LoozDBxuTbvh9O-1" value="" style="rounded=0;whiteSpace=wrap;html=1;" parent="1" vertex="1">
          <mxGeometry x="280" y="80" width="530" height="400" as="geometry" />
        </mxCell>
        <mxCell id="nkA88_LoozDBxuTbvh9O-5" value="namespace: super-chuck-norris" style="text;html=1;align=center;verticalAlign=middle;whiteSpace=wrap;rounded=0;" parent="1" vertex="1">
          <mxGeometry x="280" y="80" width="180" height="30" as="geometry" />
        </mxCell>
        <mxCell id="nkA88_LoozDBxuTbvh9O-8" value="" style="rounded=0;whiteSpace=wrap;html=1;" parent="1" vertex="1">
          <mxGeometry x="30" y="350" width="220" height="130" as="geometry" />
        </mxCell>
        <mxCell id="nkA88_LoozDBxuTbvh9O-9" value="namespace: common" style="text;html=1;align=center;verticalAlign=middle;whiteSpace=wrap;rounded=0;" parent="1" vertex="1">
          <mxGeometry x="30" y="350" width="130" height="30" as="geometry" />
        </mxCell>
        <mxCell id="nkA88_LoozDBxuTbvh9O-54" style="edgeStyle=orthogonalEdgeStyle;rounded=0;orthogonalLoop=1;jettySize=auto;html=1;" parent="1" source="nkA88_LoozDBxuTbvh9O-20" target="nkA88_LoozDBxuTbvh9O-24" edge="1">
          <mxGeometry relative="1" as="geometry" />
        </mxCell>
        <mxCell id="nkA88_LoozDBxuTbvh9O-20" value="dump&amp;nbsp;&lt;div&gt;database&lt;/div&gt;" style="aspect=fixed;sketch=0;html=1;dashed=0;whitespace=wrap;verticalLabelPosition=bottom;verticalAlign=top;fillColor=#2875E2;strokeColor=#ffffff;points=[[0.005,0.63,0],[0.1,0.2,0],[0.9,0.2,0],[0.5,0,0],[0.995,0.63,0],[0.72,0.99,0],[0.5,1,0],[0.28,0.99,0]];shape=mxgraph.kubernetes.icon2;kubernetesLabel=1;prIcon=pvc" parent="1" vertex="1">
          <mxGeometry x="730" y="390" width="50" height="48" as="geometry" />
        </mxCell>
        <mxCell id="nkA88_LoozDBxuTbvh9O-26" style="edgeStyle=orthogonalEdgeStyle;rounded=0;orthogonalLoop=1;jettySize=auto;html=1;" parent="1" source="nkA88_LoozDBxuTbvh9O-21" target="nkA88_LoozDBxuTbvh9O-25" edge="1">
          <mxGeometry relative="1" as="geometry" />
        </mxCell>
        <mxCell id="nkA88_LoozDBxuTbvh9O-21" value="backend" style="aspect=fixed;sketch=0;html=1;dashed=0;whitespace=wrap;verticalLabelPosition=bottom;verticalAlign=top;fillColor=#2875E2;strokeColor=#ffffff;points=[[0.005,0.63,0],[0.1,0.2,0],[0.9,0.2,0],[0.5,0,0],[0.995,0.63,0],[0.72,0.99,0],[0.5,1,0],[0.28,0.99,0]];shape=mxgraph.kubernetes.icon2;kubernetesLabel=1;prIcon=svc" parent="1" vertex="1">
          <mxGeometry x="390" y="208" width="50" height="48" as="geometry" />
        </mxCell>
        <mxCell id="nkA88_LoozDBxuTbvh9O-22" value="database" style="aspect=fixed;sketch=0;html=1;dashed=0;whitespace=wrap;verticalLabelPosition=bottom;verticalAlign=top;fillColor=#2875E2;strokeColor=#ffffff;points=[[0.005,0.63,0],[0.1,0.2,0],[0.9,0.2,0],[0.5,0,0],[0.995,0.63,0],[0.72,0.99,0],[0.5,1,0],[0.28,0.99,0]];shape=mxgraph.kubernetes.icon2;kubernetesLabel=1;prIcon=secret" parent="1" vertex="1">
          <mxGeometry x="565" y="120" width="50" height="48" as="geometry" />
        </mxCell>
        <mxCell id="nkA88_LoozDBxuTbvh9O-24" value="common" style="aspect=fixed;sketch=0;html=1;dashed=0;whitespace=wrap;verticalLabelPosition=bottom;verticalAlign=top;fillColor=#2875E2;strokeColor=#ffffff;points=[[0.005,0.63,0],[0.1,0.2,0],[0.9,0.2,0],[0.5,0,0],[0.995,0.63,0],[0.72,0.99,0],[0.5,1,0],[0.28,0.99,0]];shape=mxgraph.kubernetes.icon2;kubernetesLabel=1;prIcon=pv" parent="1" vertex="1">
          <mxGeometry x="40" y="390" width="50" height="48" as="geometry" />
        </mxCell>
        <mxCell id="nkA88_LoozDBxuTbvh9O-30" value="" style="edgeStyle=orthogonalEdgeStyle;rounded=0;orthogonalLoop=1;jettySize=auto;html=1;" parent="1" source="nkA88_LoozDBxuTbvh9O-25" target="nkA88_LoozDBxuTbvh9O-27" edge="1">
          <mxGeometry relative="1" as="geometry" />
        </mxCell>
        <mxCell id="nkA88_LoozDBxuTbvh9O-25" value="backend" style="aspect=fixed;sketch=0;html=1;dashed=0;whitespace=wrap;verticalLabelPosition=bottom;verticalAlign=top;fillColor=#2875E2;strokeColor=#ffffff;points=[[0.005,0.63,0],[0.1,0.2,0],[0.9,0.2,0],[0.5,0,0],[0.995,0.63,0],[0.72,0.99,0],[0.5,1,0],[0.28,0.99,0]];shape=mxgraph.kubernetes.icon2;kubernetesLabel=1;prIcon=pod" parent="1" vertex="1">
          <mxGeometry x="480" y="208" width="50" height="48" as="geometry" />
        </mxCell>
        <mxCell id="nkA88_LoozDBxuTbvh9O-32" value="" style="edgeStyle=orthogonalEdgeStyle;rounded=0;orthogonalLoop=1;jettySize=auto;html=1;" parent="1" source="nkA88_LoozDBxuTbvh9O-27" target="nkA88_LoozDBxuTbvh9O-31" edge="1">
          <mxGeometry relative="1" as="geometry" />
        </mxCell>
        <mxCell id="nkA88_LoozDBxuTbvh9O-27" value="postgresql" style="aspect=fixed;sketch=0;html=1;dashed=0;whitespace=wrap;verticalLabelPosition=bottom;verticalAlign=top;fillColor=#2875E2;strokeColor=#ffffff;points=[[0.005,0.63,0],[0.1,0.2,0],[0.9,0.2,0],[0.5,0,0],[0.995,0.63,0],[0.72,0.99,0],[0.5,1,0],[0.28,0.99,0]];shape=mxgraph.kubernetes.icon2;kubernetesLabel=1;prIcon=svc" parent="1" vertex="1">
          <mxGeometry x="565" y="208" width="50" height="48" as="geometry" />
        </mxCell>
        <mxCell id="nkA88_LoozDBxuTbvh9O-33" value="" style="edgeStyle=orthogonalEdgeStyle;rounded=0;orthogonalLoop=1;jettySize=auto;html=1;" parent="1" source="nkA88_LoozDBxuTbvh9O-31" target="nkA88_LoozDBxuTbvh9O-20" edge="1">
          <mxGeometry relative="1" as="geometry" />
        </mxCell>
        <mxCell id="nkA88_LoozDBxuTbvh9O-31" value="postgresql" style="aspect=fixed;sketch=0;html=1;dashed=0;whitespace=wrap;verticalLabelPosition=bottom;verticalAlign=top;fillColor=#2875E2;strokeColor=#ffffff;points=[[0.005,0.63,0],[0.1,0.2,0],[0.9,0.2,0],[0.5,0,0],[0.995,0.63,0],[0.72,0.99,0],[0.5,1,0],[0.28,0.99,0]];shape=mxgraph.kubernetes.icon2;kubernetesLabel=1;prIcon=pod" parent="1" vertex="1">
          <mxGeometry x="650" y="208" width="50" height="48" as="geometry" />
        </mxCell>
        <mxCell id="nkA88_LoozDBxuTbvh9O-34" style="edgeStyle=orthogonalEdgeStyle;rounded=0;orthogonalLoop=1;jettySize=auto;html=1;entryX=0.997;entryY=0.575;entryDx=0;entryDy=0;entryPerimeter=0;" parent="1" source="nkA88_LoozDBxuTbvh9O-31" target="nkA88_LoozDBxuTbvh9O-22" edge="1">
          <mxGeometry relative="1" as="geometry">
            <Array as="points">
              <mxPoint x="675" y="148" />
              <mxPoint x="615" y="148" />
            </Array>
          </mxGeometry>
        </mxCell>
        <mxCell id="nkA88_LoozDBxuTbvh9O-35" style="edgeStyle=orthogonalEdgeStyle;rounded=0;orthogonalLoop=1;jettySize=auto;html=1;entryX=0.007;entryY=0.565;entryDx=0;entryDy=0;entryPerimeter=0;" parent="1" source="nkA88_LoozDBxuTbvh9O-25" target="nkA88_LoozDBxuTbvh9O-22" edge="1">
          <mxGeometry relative="1" as="geometry">
            <Array as="points">
              <mxPoint x="505" y="147" />
            </Array>
          </mxGeometry>
        </mxCell>
        <mxCell id="7MTR8ySN4lNad45HxjDr-1" style="edgeStyle=orthogonalEdgeStyle;rounded=0;orthogonalLoop=1;jettySize=auto;html=1;" edge="1" parent="1" source="nkA88_LoozDBxuTbvh9O-39" target="nkA88_LoozDBxuTbvh9O-21">
          <mxGeometry relative="1" as="geometry" />
        </mxCell>
        <mxCell id="nkA88_LoozDBxuTbvh9O-39" value="&lt;div&gt;ingress&lt;/div&gt;" style="aspect=fixed;sketch=0;html=1;dashed=0;whitespace=wrap;verticalLabelPosition=bottom;verticalAlign=top;fillColor=#2875E2;strokeColor=#ffffff;points=[[0.005,0.63,0],[0.1,0.2,0],[0.9,0.2,0],[0.5,0,0],[0.995,0.63,0],[0.72,0.99,0],[0.5,1,0],[0.28,0.99,0]];shape=mxgraph.kubernetes.icon2;kubernetesLabel=1;prIcon=ing" parent="1" vertex="1">
          <mxGeometry x="299" y="208" width="50" height="48" as="geometry" />
        </mxCell>
        <mxCell id="nkA88_LoozDBxuTbvh9O-44" value="" style="edgeStyle=orthogonalEdgeStyle;rounded=0;orthogonalLoop=1;jettySize=auto;html=1;" parent="1" source="nkA88_LoozDBxuTbvh9O-41" target="nkA88_LoozDBxuTbvh9O-42" edge="1">
          <mxGeometry relative="1" as="geometry" />
        </mxCell>
        <mxCell id="nkA88_LoozDBxuTbvh9O-41" value="frontend" style="aspect=fixed;sketch=0;html=1;dashed=0;whitespace=wrap;verticalLabelPosition=bottom;verticalAlign=top;fillColor=#2875E2;strokeColor=#ffffff;points=[[0.005,0.63,0],[0.1,0.2,0],[0.9,0.2,0],[0.5,0,0],[0.995,0.63,0],[0.72,0.99,0],[0.5,1,0],[0.28,0.99,0]];shape=mxgraph.kubernetes.icon2;kubernetesLabel=1;prIcon=svc" parent="1" vertex="1">
          <mxGeometry x="391" y="304" width="50" height="48" as="geometry" />
        </mxCell>
        <mxCell id="nkA88_LoozDBxuTbvh9O-42" value="frontend" style="aspect=fixed;sketch=0;html=1;dashed=0;whitespace=wrap;verticalLabelPosition=bottom;verticalAlign=top;fillColor=#2875E2;strokeColor=#ffffff;points=[[0.005,0.63,0],[0.1,0.2,0],[0.9,0.2,0],[0.5,0,0],[0.995,0.63,0],[0.72,0.99,0],[0.5,1,0],[0.28,0.99,0]];shape=mxgraph.kubernetes.icon2;kubernetesLabel=1;prIcon=pod" parent="1" vertex="1">
          <mxGeometry x="480" y="304" width="50" height="48" as="geometry" />
        </mxCell>
        <mxCell id="7MTR8ySN4lNad45HxjDr-3" style="edgeStyle=orthogonalEdgeStyle;rounded=0;orthogonalLoop=1;jettySize=auto;html=1;" edge="1" parent="1" source="nkA88_LoozDBxuTbvh9O-45" target="nkA88_LoozDBxuTbvh9O-39">
          <mxGeometry relative="1" as="geometry" />
        </mxCell>
        <mxCell id="nkA88_LoozDBxuTbvh9O-45" value="" style="aspect=fixed;sketch=0;html=1;dashed=0;whitespace=wrap;verticalLabelPosition=bottom;verticalAlign=top;fillColor=#2875E2;strokeColor=#ffffff;points=[[0.005,0.63,0],[0.1,0.2,0],[0.9,0.2,0],[0.5,0,0],[0.995,0.63,0],[0.72,0.99,0],[0.5,1,0],[0.28,0.99,0]];shape=mxgraph.kubernetes.icon2;kubernetesLabel=1;prIcon=user" parent="1" vertex="1">
          <mxGeometry x="200" y="208" width="50" height="48" as="geometry" />
        </mxCell>
        <mxCell id="nkA88_LoozDBxuTbvh9O-50" value="cluster issuer&lt;div&gt;lets-encrypt&lt;/div&gt;" style="aspect=fixed;sketch=0;html=1;dashed=0;whitespace=wrap;verticalLabelPosition=bottom;verticalAlign=top;fillColor=#2875E2;strokeColor=#ffffff;points=[[0.005,0.63,0],[0.1,0.2,0],[0.9,0.2,0],[0.5,0,0],[0.995,0.63,0],[0.72,0.99,0],[0.5,1,0],[0.28,0.99,0]];shape=mxgraph.kubernetes.icon2;prIcon=c_role" parent="1" vertex="1">
          <mxGeometry x="400" y="120" width="50" height="48" as="geometry" />
        </mxCell>
        <mxCell id="nkA88_LoozDBxuTbvh9O-51" style="edgeStyle=orthogonalEdgeStyle;rounded=0;orthogonalLoop=1;jettySize=auto;html=1;entryX=-0.003;entryY=0.479;entryDx=0;entryDy=0;entryPerimeter=0;" parent="1" source="nkA88_LoozDBxuTbvh9O-39" target="nkA88_LoozDBxuTbvh9O-50" edge="1">
          <mxGeometry relative="1" as="geometry">
            <Array as="points">
              <mxPoint x="370" y="232" />
              <mxPoint x="370" y="143" />
            </Array>
          </mxGeometry>
        </mxCell>
        <mxCell id="7MTR8ySN4lNad45HxjDr-2" style="edgeStyle=orthogonalEdgeStyle;rounded=0;orthogonalLoop=1;jettySize=auto;html=1;entryX=-0.014;entryY=0.509;entryDx=0;entryDy=0;entryPerimeter=0;" edge="1" parent="1" source="nkA88_LoozDBxuTbvh9O-39" target="nkA88_LoozDBxuTbvh9O-41">
          <mxGeometry relative="1" as="geometry">
            <Array as="points">
              <mxPoint x="370" y="232" />
              <mxPoint x="370" y="328" />
            </Array>
          </mxGeometry>
        </mxCell>
      </root>
    </mxGraphModel>
  </diagram>
</mxfile>
